# xmcd
#
# Track frame offsets:
#	150
#	20327
#	31282
#	39110
#	50562
#	56677
#	61592
#	73230
#	79467
#	84575
#	89217
#	94825
#	106620
#	112925
#	119247
#	129622
#	135652
#	141407
#	146175
#	153770
#	159542
#	169625
#	176762
#	182925
#	188297
#	193540
#	198877
#	203297
#	208760
#
# Disc length: 3017 seconds
#
# Revision: 1
# Processed by: cddbd v1.5.1PL0 Copyright (c) Steve Scherf et al.
# Submitted via: CDex 1.50Beta5
#
DISCID=9b0bc71d
DTITLE=sus4 - 「フォーチュン・クエストL」オリジナル・サウンド・トラック〜新たなるクエストへの旅〜
DYEAR=1997
DGENRE=
TTITLE0=sus4/Good Fine Everyday
TTITLE1=TVサントラ/プロローグ
TTITLE2=TVサントラ/悪夢
TTITLE3=TVサントラ/パステルのテーマ
TTITLE4=TVサントラ/調子のよい会話
TTITLE5=TVサントラ/明るくけたたましい会話
TTITLE6=TVサントラ/ドタバタ混乱
TTITLE7=TVサントラ/軽い不安
TTITLE8=TVサントラ/豪華絢爛
TTITLE9=TVサントラ/不穏な出来事
TTITLE10=TVサントラ/ドジな失敗
TTITLE11=TVサントラ/懐かしい回想
TTITLE12=TVサントラ/苦しい戦い
TTITLE13=TVサントラ/新たなるクエストへの暗示
TTITLE14=TVサントラ/神々しい山々
TTITLE15=TVサントラ/宝玉の謎
TTITLE16=TVサントラ/突然起こる超常現象
TTITLE17=TVサントラ/ドラゴン出現
TTITLE18=TVサントラ/再会
TTITLE19=TVサントラ/ユニークな会話
TTITLE20=TVサントラ/別れ
TTITLE21=TVサントラ/モンスターの登場
TTITLE22=TVサントラ/意を決した戦い
TTITLE23=TVサントラ/騎士登場
TTITLE24=TVサントラ/旅のテーマ
TTITLE25=TVサントラ/キットン
TTITLE26=TVサントラ/静かな夜
TTITLE27=TVサントラ/明るいエンディング
TTITLE28=sus4/星の声
EXTD=
EXTT0=
EXTT1=
EXTT2=
EXTT3=
EXTT4=
EXTT5=
EXTT6=
EXTT7=
EXTT8=
EXTT9=
EXTT10=
EXTT11=
EXTT12=
EXTT13=
EXTT14=
EXTT15=
EXTT16=
EXTT17=
EXTT18=
EXTT19=
EXTT20=
EXTT21=
EXTT22=
EXTT23=
EXTT24=
EXTT25=
EXTT26=
EXTT27=
EXTT28=
PLAYORDER=
